<?xml version="1.0" encoding="UTF-8" standalone="no"?>
<!DOCTYPE svg PUBLIC "-//W3C//DTD SVG 1.1//EN" "http://www.w3.org/Graphics/SVG/1.1/DTD/svg11.dtd">
<svg xmlns="http://www.w3.org/2000/svg" hola_ext_inject="ready">
<metadata>
This is a custom SVG webfont generated by Font Squirrel.
Copyright   : Copyright c Christian Schwartz 2007 All rights reserved
Designer    : Christian Schwartz
Foundry     : Schwartzco Inc
Foundry URL : httpchristianschwartzcom
</metadata>
<defs>
<font id="StagSansBook" horiz-adv-x="1056">
<font-face units-per-em="2048" ascent="1638" descent="-410"/>
<missing-glyph horiz-adv-x="442"/>
<glyph unicode=" " horiz-adv-x="442"/>
<glyph unicode="	" horiz-adv-x="442"/>
<glyph unicode=" " horiz-adv-x="442"/>
<glyph unicode="!" horiz-adv-x="542" d="M145 116.5q0 53.5 37 91.5t88 38q53 0 90 -38t37 -91.5t-36.5 -90t-90 -36.5t-89.5 36.5t-36 90zM160 1300v134h223v-134l-39 -931h-145z"/>
<glyph unicode="&quot;" horiz-adv-x="626" d="M66 1309v125h198v-125l-35 -291h-125zM362 1309v125h199v-125l-37 -291h-127z"/>
<glyph unicode="#" horiz-adv-x="1038" d="M59 457v168h185l30 235h-157v168h182l57 406h150l-62 -406h228l57 406h148l-58 -406h156v-168h-180l-33 -235h156v-168h-181l-63 -457h-148l64 457h-223l-64 -457h-149l65 457h-160zM389 625h225l33 235h-225z"/>
<glyph unicode="$" horiz-adv-x="1062" d="M63 113v180h78q119 -129 303 -146v508q-195 59 -286.5 146.5t-91.5 251.5q0 168 105 270t286 119v123h137v-121q182 -14 321 -103v-172h-75q-111 100 -246 117v-467q217 -61 309 -146t92 -263q0 -188 -107.5 -295t-305.5 -123v-201h-138v199q-223 10 -381 123zM252 1073 q0 -88 48 -133t157 -82v426q-205 -29 -205 -211zM582 152q219 35 219 233q0 100 -51.5 147.5t-167.5 81.5v-462z"/>
<glyph unicode="%" horiz-adv-x="1581" d="M61 1077q0 178 95.5 273.5t234.5 95.5q141 0 235.5 -95.5t94.5 -273.5t-94.5 -275t-235.5 -97q-137 0 -233.5 97t-96.5 275zM217 -70l979 1563h166l-981 -1563h-164zM233 1075q0 -119 43 -181.5t115 -62.5q76 0 118 62.5t42 181.5q0 121 -42 182.5t-118 61.5 q-74 0 -116 -62.5t-42 -181.5zM858 360.5q0 178.5 95.5 273.5t234.5 95t234.5 -95t95.5 -273.5t-95.5 -275.5t-234.5 -97t-234.5 97t-95.5 275.5zM1030 358q0 -119 42 -181t116 -62t117 62.5t43 180.5q0 121 -43 182.5t-117 61.5t-116 -61.5t-42 -182.5z"/>
<glyph unicode="&amp;" horiz-adv-x="1345" d="M70 406q0 147 84 250.5t219 162.5q-88 123 -88 268q0 160 110.5 259.5t300.5 99.5q184 0 297 -88v-164h-82q-86 82 -213 82q-92 0 -147 -52.5t-55 -138.5q0 -61 28.5 -115.5t98.5 -133.5l333 -385q88 199 103 385h180v-54q-39 -254 -164 -469l213 -245v-68h-211l-129 147 q-160 -160 -397 -159q-231 0 -356 114t-125 304zM291 424q0 -117 73.5 -193.5t221.5 -76.5q150 0 256 112l-379 441q-172 -101 -172 -283z"/>
<glyph unicode="'" horiz-adv-x="331" d="M66 1309v125h198v-125l-35 -291h-125z"/>
<glyph unicode="(" horiz-adv-x="643" d="M74 715q0 182 42 329.5t112.5 240.5t149.5 149.5t165 83.5h47v-144q-55 -25 -105.5 -69.5t-100.5 -119.5t-79 -196t-29 -274q0 -530 314 -674v-141h-47q-86 27 -165 84t-149.5 151t-112.5 244t-42 336z"/>
<glyph unicode=")" horiz-adv-x="643" d="M51 1374v144h51q86 -27 163 -83.5t148.5 -149.5t113.5 -240.5t42 -329.5q0 -150 -28.5 -278t-74.5 -216t-108.5 -155.5t-125 -106.5t-130.5 -59h-51v141q59 27 109.5 71t100.5 119.5t79 199.5t29 284q0 154 -30 274.5t-80 195.5t-100.5 119.5t-107.5 69.5z"/>
<glyph unicode="*" horiz-adv-x="765" d="M55 1118l54 164l73 -25l150 -90l-33 183v84h166v-84l-33 -183l150 90l75 25l52 -164l-74 -24l-170 -21l129 -123l49 -67l-133 -99l-49 68l-80 168l-76 -168l-49 -68l-133 99l49 67l129 123l-170 21z"/>
<glyph unicode="+" horiz-adv-x="1024" d="M70 621v174h354v385h178v-385h352v-174h-352v-385h-178v385h-354z"/>
<glyph unicode="," horiz-adv-x="403" d="M66 -98q109 18 108 80q0 16 -5 24t-23.5 18.5t-22.5 12.5q-49 33 -49 96q0 47 35.5 80t87.5 33q57 0 95 -41t38 -119q0 -133 -64.5 -201.5t-199.5 -85.5v103z"/>
<glyph unicode="-" horiz-adv-x="565" d="M76 520v178h413v-178h-413z"/>
<glyph unicode="." horiz-adv-x="403" d="M74 116.5q0 53.5 36.5 91.5t90 38t91.5 -38t38 -91.5t-38 -90t-91.5 -36.5t-90 36.5t-36.5 90z"/>
<glyph unicode="/" horiz-adv-x="688" d="M27 -53l467 1571h161v-48l-469 -1570h-159v47z"/>
<glyph unicode="0" horiz-adv-x="1329" d="M80 717q0 352 168 540.5t417.5 188.5t416.5 -188.5t167 -540.5q0 -354 -167 -541.5t-416 -187.5q-252 0 -419 187.5t-167 541.5zM309 713q0 -561 357 -561q168 0 262 137t94 424q0 289 -94 428t-262 139q-357 0 -357 -567z"/>
<glyph unicode="1" horiz-adv-x="708" d="M43 1083v152l328 199h147v-1434h-221v1190l-188 -107h-66z"/>
<glyph unicode="2" horiz-adv-x="1060" d="M55 0v184l404 404q154 156 220 257t66 202q0 106 -62 165.5t-179 59.5q-178 0 -318 -127h-77v158q182 143 407 143q219 0 336 -99.5t117 -291.5q0 -143 -86 -270.5t-269 -305.5l-303 -297h664v-182h-920z"/>
<glyph unicode="3" horiz-adv-x="1038" d="M51 106v166h90q102 -115 295 -114q141 0 222 68.5t81 191.5q0 236 -290 235h-113v166h98q289 0 289 232q0 223 -242 223q-174 0 -297 -103h-80v150q168 125 394 125q209 0 322.5 -94.5t113.5 -280.5q0 -246 -248 -323v-9q276 -55 277 -327q0 -201 -138.5 -312.5 t-375.5 -111.5q-244 -1 -398 118z"/>
<glyph unicode="4" horiz-adv-x="1155" d="M53 332v196l672 906h207v-936h172v-166h-172v-332h-221v332h-658zM223 498h488v653h-4l-484 -647v-6z"/>
<glyph unicode="5" horiz-adv-x="1062" d="M61 100v166h89q102 -111 290 -110q147 0 236.5 83t89.5 228q0 143 -70.5 215t-185.5 72q-162 0 -262 -119h-137v799h804v-185h-641v-422h5q109 94 284 95q186 0 305 -113t119 -334q0 -225 -149.5 -356t-393.5 -131q-223 -1 -383 112z"/>
<glyph unicode="6" horiz-adv-x="1193" d="M80 686q0 365 179 562.5t486 197.5q178 0 295 -64v-172h-86q-80 68 -219 68q-201 0 -308.5 -136t-119.5 -392q133 143 373 143q195 0 318.5 -111.5t123.5 -318.5q0 -215 -139 -345t-365 -130q-240 0 -389 177t-149 521zM305 602q16 -459 313 -459q137 0 211 84t74 230 q0 137 -73.5 206.5t-200.5 69.5q-92 0 -179.5 -37t-144.5 -94z"/>
<glyph unicode="7" horiz-adv-x="1042" d="M61 1249v185h916v-201l-533 -1233h-206v96l573 1147v6h-750z"/>
<glyph unicode="8" horiz-adv-x="1175" d="M70 401q0 135 76.5 229.5t205.5 133.5v6q-102 35 -161.5 114t-59.5 193q0 170 125 269.5t330 99.5q207 0 331.5 -99.5t124.5 -269.5q0 -115 -58 -193.5t-161 -113.5v-6q131 -39 207 -133t76 -230q0 -193 -136 -303t-384 -110t-382 110t-134 303zM285 411.5 q0 -120.5 76.5 -194.5t224 -74t226.5 74t79 194.5t-80 197.5t-225.5 77t-223 -77t-77.5 -197.5zM342 1063q0 -102 64.5 -160.5t179 -58.5t181.5 58.5t67 160.5q0 104 -67 164.5t-181 60.5q-113 0 -178.5 -60.5t-65.5 -164.5z"/>
<glyph unicode="9" horiz-adv-x="1191" d="M70 967q0 213 139 346t364 133q240 0 388.5 -177t148.5 -521q0 -369 -174 -564.5t-494 -195.5q-178 0 -303 57v174h88q66 -66 224 -65q215 0 318 131t118 389q-143 -133 -371 -133q-199 0 -322.5 110.5t-123.5 315.5zM291 973q0 -137 73.5 -205t200.5 -68q92 0 180.5 37 t141.5 94q-20 459 -314 459q-137 0 -209.5 -85t-72.5 -232z"/>
<glyph unicode=":" horiz-adv-x="409" d="M76 116.5q0 53.5 38 91.5t91 38t90 -38t37 -91.5t-37 -90t-90 -36.5t-91 36.5t-38 90zM76 729q0 53 38 91t91 38t90 -38t37 -91t-37 -90t-90 -37t-91 37t-38 90z"/>
<glyph unicode=";" horiz-adv-x="409" d="M66 -98q109 18 108 80q0 16 -5 24t-23.5 18.5t-22.5 12.5q-49 33 -49 96q0 47 35.5 80t87.5 33q57 0 95 -41t38 -119q0 -133 -64.5 -201.5t-199.5 -85.5v103zM76 729q0 53 38 91t91 38t90 -38t37 -91t-37 -90t-90 -37t-91 37t-38 90z"/>
<glyph unicode="&lt;" horiz-adv-x="952" d="M68 600v150l755 397h54v-164l-596 -303v-4l596 -307v-166h-54z"/>
<glyph unicode="=" horiz-adv-x="1007" d="M72 360v175h862v-175h-862zM72 754v174h862v-174h-862z"/>
<glyph unicode="&gt;" horiz-adv-x="952" d="M76 203v164l598 303v4l-598 307v166h53l756 -397v-150l-756 -397h-53z"/>
<glyph unicode="?" horiz-adv-x="903" d="M66 1169v162q147 115 358 115q190 0 297.5 -89t107.5 -261q0 -117 -55 -198t-174 -189q-72 -68 -101.5 -101t-53.5 -96q-17 -47 -17 -103q0 -20 2 -40h-156q-8 53 -8 98q0 68 19 119q31 84 137 192q51 51 69.5 72.5t53.5 67t48 87.5t13 91q0 86 -51 133t-143 47 q-168 0 -260 -107h-86zM236 116.5q0 53.5 35.5 91.5t89 38t90 -38t36.5 -91.5t-36.5 -90t-90 -36.5t-89 36.5t-35.5 90z"/>
<glyph unicode="@" horiz-adv-x="1757" d="M70 496q0 201 76.5 368.5t200.5 273t274.5 163t304.5 57.5q324 0 543 -179.5t219 -490.5q0 -268 -136.5 -408.5t-326.5 -140.5q-207 0 -234 152q-123 -152 -284 -152q-111 0 -177.5 72t-66.5 207q0 199 130 363.5t329 164.5q123 0 202 -76q45 68 113 68h66l-119 -518 q-6 -30 -6 -54q0 -92 88 -92q115 0 189.5 102.5t74.5 311.5q0 248 -165 390.5t-439 142.5q-131 0 -253 -46.5t-220.5 -133.5t-157.5 -228t-59 -317q0 -315 179 -468t466 -153q311 0 503 141h56v-129q-94 -68 -242.5 -108.5t-316.5 -40.5q-160 0 -301.5 44t-257 133 t-184 238.5t-68.5 342.5zM649 418q0 -70 31 -104.5t82 -34.5q109 0 229 133l82 360q-66 33 -129 33q-123 0 -209 -117.5t-86 -269.5z"/>
<glyph unicode="A" horiz-adv-x="1308" d="M63 0v68l474 1366h237l471 -1366v-68h-211l-133 401h-526l-129 -401h-183zM428 565h418l-207 633h-4z"/>
<glyph unicode="B" horiz-adv-x="1204" d="M158 0v1434h440q469 0 469 -369q0 -242 -246 -305v-6q305 -66 305 -346q0 -199 -133 -303.5t-372 -104.5h-463zM377 168h237q135 0 210 63.5t75 186.5q0 125 -75.5 187.5t-217.5 62.5h-229v-500zM377 829h213q256 0 256 222q0 215 -254 215h-215v-437z"/>
<glyph unicode="C" horiz-adv-x="1255" d="M88 717q0 338 184.5 533.5t470.5 195.5q143 0 233.5 -27.5t180.5 -87.5v-174h-86q-123 119 -321.5 119t-316.5 -143.5t-118 -407.5q0 -281 108.5 -425t309.5 -144q217 0 369 155h72v-170q-176 -154 -449 -153q-291 0 -464 192.5t-173 536.5z"/>
<glyph unicode="D" horiz-adv-x="1368" d="M158 0v1434h409q356 0 536.5 -172t180.5 -541q0 -721 -723 -721h-403zM379 168h182q256 0 375 128t119 423q0 291 -118 418t-376 127h-182v-1096z"/>
<glyph unicode="E" horiz-adv-x="1138" d="M158 0v1434h878v-172h-657v-447h481v-164h-481v-483h680v-168h-901z"/>
<glyph unicode="F" horiz-adv-x="1116" d="M158 0v1434h882v-172h-661v-480h502v-166h-502v-616h-221z"/>
<glyph unicode="G" horiz-adv-x="1353" d="M82 717q0 350 183.5 539.5t492.5 189.5q221 0 403 -96v-185h-80q-123 109 -319 109q-211 0 -328 -134t-117 -415q0 -575 416 -575q154 0 260 51v370h-239v156h460v-629q-205 -111 -481 -110q-307 0 -479 188.5t-172 540.5z"/>
<glyph unicode="H" horiz-adv-x="1394" d="M158 0v1434h221v-615h637v615h223v-1434h-223v651h-637v-651h-221z"/>
<glyph unicode="I" horiz-adv-x="548" d="M162 0v1434h225v-1434h-225z"/>
<glyph unicode="J" horiz-adv-x="905" d="M49 61v170h78q80 -76 207 -75q197 0 196 204v1074h226v-1078q0 -180 -103.5 -275t-308.5 -95q-172 -1 -295 75z"/>
<glyph unicode="K" horiz-adv-x="1294" d="M158 0v1434h221v-713l620 713h181v-68l-451 -510l500 -788v-68h-207l-438 694l-205 -223v-471h-221z"/>
<glyph unicode="L" horiz-adv-x="1095" d="M158 0v1434h221v-1266h639v-168h-860z"/>
<glyph unicode="M" horiz-adv-x="1689" d="M158 0v1434h309l379 -1088h4l379 1088h303v-1434h-221v1169h-6l-410 -1169h-139l-406 1169h-8v-1169h-184z"/>
<glyph unicode="N" horiz-adv-x="1390" d="M158 0v1434h256l624 -1055h4v1055h193v-1434h-205l-678 1149h-4v-1149h-190z"/>
<glyph unicode="O" horiz-adv-x="1462" d="M82 717q0 340 187.5 534.5t462 194.5t460.5 -194.5t186 -534.5t-186 -534.5t-461 -194.5q-276 0 -462.5 193.5t-186.5 535.5zM311 713q0 -274 115 -416.5t305 -142.5q188 0 304 142t116 417q0 276 -115.5 421.5t-304 145.5t-304.5 -145.5t-116 -421.5z"/>
<glyph unicode="P" horiz-adv-x="1173" d="M158 0v1434h417q528 0 529 -437q0 -444 -533 -444h-192v-553h-221zM379 1264v-549h192q160 0 234 66.5t74 211.5q0 143 -73 207t-235 64h-192z"/>
<glyph unicode="Q" horiz-adv-x="1464" d="M82 717q0 342 186.5 535.5t463 193.5t461.5 -193.5t185 -535.5q0 -262 -117.5 -436.5t-318.5 -231.5v-4l479 -90v-176h-94l-657 184q-283 82 -435.5 261.5t-152.5 492.5zM311 713q0 -274 116 -418.5t304.5 -144.5t304 143t115.5 419.5t-115.5 422t-304 145.5 t-304.5 -145.5t-116 -421.5z"/>
<glyph unicode="R" horiz-adv-x="1255" d="M160 0v1434h424q246 0 379 -101.5t133 -306.5q0 -287 -236 -383l309 -575v-68h-202l-316 600q-20 -2 -67 -2h-203v-598h-221zM381 762h197q150 0 221 59.5t71 192.5q0 250 -292 250h-197v-502z"/>
<glyph unicode="S" horiz-adv-x="1064" d="M59 109v180h78q123 -131 352 -131q295 0 295 231q0 27 -5 49.5t-10 40t-21 34.5l-26 28q-9 10 -33.5 23.5t-36 18.5t-44.5 16l-45 15q-12 4 -52 14.5t-52 14.5q-199 57 -289 148.5t-90 259.5q0 186 123 290.5t334 104.5q231 0 381 -96v-174h-76q-125 100 -297 100 q-270 0 -271 -209q0 -102 66 -148.5t217 -84.5q236 -63 334 -150.5t98 -271.5q0 -207 -129 -315.5t-364 -108.5q-257 0 -437 121z"/>
<glyph unicode="T" horiz-adv-x="1167" d="M59 1266v168h1047v-168h-412v-1266h-223v1266h-412z"/>
<glyph unicode="U" horiz-adv-x="1380" d="M150 528v906h223v-912q0 -201 88 -279.5t254 -78.5q156 0 236.5 80t80.5 278v912h199v-906q0 -541 -529 -540q-260 0 -406 137t-146 403z"/>
<glyph unicode="V" horiz-adv-x="1296" d="M61 1366v68h209l385 -1160h4l388 1160h188v-68l-473 -1366h-232z"/>
<glyph unicode="W" horiz-adv-x="1812" d="M66 1366v68h210l256 -1125h5l282 1125h197l280 -1125h4l256 1125h191v-68l-338 -1366h-235l-263 1081h-4l-268 -1081h-236z"/>
<glyph unicode="X" horiz-adv-x="1280" d="M78 0v72l418 676l-402 614v72h209l350 -549l328 549h180v-72l-385 -629l426 -661v-72h-207l-379 598l-360 -598h-178z"/>
<glyph unicode="Y" horiz-adv-x="1189" d="M55 1362v72h203l352 -650h2l344 650h179v-72l-420 -782v-580h-221v573z"/>
<glyph unicode="Z" horiz-adv-x="1107" d="M55 0v178l752 1082v6h-696v168h931v-183l-749 -1081v-6h741v-164h-979z"/>
<glyph unicode="[" horiz-adv-x="645" d="M158 -100v1618h417v-148h-219v-1323h219v-147h-417z"/>
<glyph unicode="\" horiz-adv-x="688" d="M33 1470v48h160l469 -1571v-47h-162z"/>
<glyph unicode="]" horiz-adv-x="643" d="M68 47h221v1323h-221v148h417v-1618h-417v147z"/>
<glyph unicode="^" horiz-adv-x="854" d="M45 936v57l297 441h172l295 -441v-57h-170l-209 305h-6l-209 -305h-170z"/>
<glyph unicode="_" horiz-adv-x="729" d="M10 -188h709v-144h-709v144z"/>
<glyph unicode="`" horiz-adv-x="833" d="M176 1366v68h209l102 -224v-49h-118z"/>
<glyph unicode="a" d="M68 307q0 160 113.5 243t301.5 83q119 0 234 -29v141q0 182 -215 183q-172 0 -293 -88h-66v155q184 92 385 92q197 0 298.5 -77.5t101.5 -249.5v-760h-82q-63 0 -89 23.5t-34 95.5q-121 -131 -320 -131q-152 0 -243.5 83.5t-91.5 235.5zM272 319q0 -96 54.5 -142 t144.5 -46q137 0 246 123v227q-98 20 -199 21q-246 -1 -246 -183z"/>
<glyph unicode="b" horiz-adv-x="1169" d="M137 0v1434h115q59 0 76.5 -26t17.5 -114v-360q154 154 348 153q172 0 287 -128t115 -408q0 -150 -38 -263.5t-103.5 -176t-141.5 -93t-164 -30.5q-205 0 -325 114q-16 -45 -44 -73.5t-57 -28.5h-86zM346 240q96 -98 248 -99q289 0 289 389.5t-265 389.5 q-133 0 -272 -123v-557z"/>
<glyph unicode="c" horiz-adv-x="1001" d="M70 535q0 254 148.5 403t379.5 149q186 0 322 -86v-163h-86q-88 88 -238 88q-141 0 -227 -103.5t-86 -287.5q0 -190 81.5 -289t227.5 -99q166 0 260 103h78v-152q-139 -111 -342 -110q-244 0 -381 145.5t-137 401.5z"/>
<glyph unicode="d" horiz-adv-x="1171" d="M76 520q0 291 129 429t313 138q190 0 305 -110v457h115q61 0 77.5 -25t16.5 -115v-1294h-137q-37 0 -51.5 28.5t-18.5 116.5q-131 -158 -336 -157q-180 0 -296.5 134t-116.5 398zM287 530q0 -389 254 -389q154 0 282 144v544q-96 90 -245 91q-125 0 -208 -87.5 t-83 -302.5z"/>
<glyph unicode="e" horiz-adv-x="1077" d="M70 532q0 252 138 403.5t351 151.5q217 0 333 -129t116 -389q0 -16 -1 -43.5t-1 -29.5h-721q8 -184 89 -267.5t236 -83.5q176 0 297 99h68v-146q-162 -111 -395 -110q-244 0 -377 145t-133 399zM289 633h512q-2 166 -63.5 238.5t-178.5 72.5q-239 0 -270 -311z"/>
<glyph unicode="f" horiz-adv-x="649" d="M41 924v147h129v92q0 143 77 214t214 71q92 0 155 -23v-131h-90q-74 0 -110.5 -30.5t-36.5 -108.5v-84h219v-147h-219v-924h-209v924h-129z"/>
<glyph unicode="g" horiz-adv-x="1169" d="M76 535q0 281 131 416.5t319 135.5q190 0 312 -116q23 100 98 100h96v-1034q0 -184 -132 -282.5t-361 -98.5q-254 0 -412 90v158h68q121 -92 315 -92q313 0 313 239v115q-133 -139 -329 -139q-178 0 -298 126t-120 382zM287 551q0 -203 68.5 -287t193.5 -84 q145 0 274 133v512q-100 94 -245 95q-125 0 -208 -83t-83 -286z"/>
<glyph unicode="h" horiz-adv-x="1159" d="M137 0v1434h115q59 0 76.5 -25t17.5 -115v-358q193 152 410 151q274 0 274 -294v-793h-209v743q0 94 -40 132t-122 38q-131 0 -313 -106v-807h-209z"/>
<glyph unicode="i" horiz-adv-x="491" d="M123 1309q0 51 37 87t86 36t86 -36t37 -87q0 -49 -37 -84t-86 -35t-86 35t-37 84zM139 0v1071h117q61 0 76.5 -28.5t15.5 -131.5v-911h-209z"/>
<glyph unicode="j" horiz-adv-x="491" d="M-51 -324v129h59q72 0 101.5 35t29.5 113v1118h117q59 0 75.5 -28.5t16.5 -131.5v-970q0 -281 -270 -281q-80 0 -129 16zM123 1309q0 51 37 87t86 36t86 -36t37 -87q0 -49 -37 -84t-86 -35t-86 35t-37 84z"/>
<glyph unicode="k" d="M137 0v1434h115q59 0 76.5 -26t17.5 -114v-725l438 502h174v-61l-331 -369l366 -578v-63h-190l-318 496l-139 -154v-342h-209z"/>
<glyph unicode="l" horiz-adv-x="489" d="M139 0v1434h117q61 0 77.5 -25t16.5 -115v-1294h-211z"/>
<glyph unicode="m" horiz-adv-x="1771" d="M137 0v1071h131q41 0 58.5 -26.5t19.5 -104.5q186 147 383 147t246 -155q188 156 399 155q119 0 192.5 -67.5t73.5 -216.5v-803h-206v748q0 90 -37 127.5t-115 37.5q-129 0 -289 -102v-811h-209v748q0 90 -36.5 127.5t-112.5 37.5q-127 0 -289 -102v-811h-209z"/>
<glyph unicode="n" horiz-adv-x="1159" d="M137 0v1071h131q41 0 58.5 -26.5t19.5 -108.5q193 152 410 151q274 0 274 -294v-793h-209v743q0 94 -40 132t-122 38q-131 0 -313 -106v-807h-209z"/>
<glyph unicode="o" horiz-adv-x="1163" d="M70 532q0 252 144 403.5t367.5 151.5t368 -151.5t144.5 -403.5q0 -250 -144.5 -397t-368 -147t-367.5 147t-144 397zM283 532q0 -188 79.5 -287.5t219 -99.5t219.5 98.5t80 289t-80 294t-219 103.5q-137 0 -218 -104t-81 -294z"/>
<glyph unicode="p" horiz-adv-x="1169" d="M137 -332v1403h131q41 0 58.5 -27.5t19.5 -109.5q154 154 348 153q170 0 286 -128t116 -400q0 -285 -131 -419t-322 -134q-180 0 -297 96v-434h-209zM346 254q94 -94 246 -94q291 0 291 379q0 381 -262 381q-131 0 -275 -123v-543z"/>
<glyph unicode="q" horiz-adv-x="1169" d="M76 524q0 289 131 426t319 137q193 0 312 -118q25 102 98 102h96v-1403h-209v477q-129 -139 -325 -139q-182 0 -302 128t-120 390zM287 543q0 -209 67.5 -296t194.5 -87q150 0 274 135v530q-98 94 -248 95q-125 0 -206.5 -86t-81.5 -291z"/>
<glyph unicode="r" horiz-adv-x="768" d="M137 0v1071h131q41 0 58.5 -28.5t19.5 -118.5q137 158 307 157q33 0 58 -8v-172q-39 2 -47 2q-180 0 -318 -121v-782h-209z"/>
<glyph unicode="s" horiz-adv-x="907" d="M78 84v162h67q100 -96 273 -96q223 0 223 155q0 68 -48 101.5t-177 54.5q-170 25 -254 95.5t-84 213.5q0 150 103.5 231.5t281.5 81.5q182 0 315 -75v-160h-67q-94 76 -246 76q-201 0 -201 -138q0 -63 50.5 -95t177.5 -50q182 -27 264 -97.5t82 -219.5 q0 -158 -102.5 -246t-307.5 -88q-207 0 -350 94z"/>
<glyph unicode="t" horiz-adv-x="679" d="M41 1071h129v291h209v-291h237v-147h-237v-635q0 -82 36 -114t117 -32h97v-135q-78 -20 -170 -20q-289 0 -289 276v660h-129v147z"/>
<glyph unicode="u" horiz-adv-x="1171" d="M137 272v799h209v-752q0 -96 42 -132.5t124 -36.5q131 0 303 102v819h209v-1071h-131q-39 0 -55.5 22.5t-20.5 98.5q-190 -135 -387 -135q-293 -1 -293 286z"/>
<glyph unicode="v" horiz-adv-x="1081" d="M55 1012v59h195l303 -819h4l289 819h180v-59l-379 -1012h-203z"/>
<glyph unicode="w" horiz-adv-x="1548" d="M59 1010v61h195l215 -774h4l234 774h163l232 -774h4l213 774h170v-61l-295 -1010h-186l-230 766h-4l-233 -766h-185z"/>
<glyph unicode="x" horiz-adv-x="1054" d="M63 0v61l324 488l-309 461v61h194l263 -399l241 399h172v-61l-286 -451l327 -498v-61h-192l-285 440l-272 -440h-177z"/>
<glyph unicode="y" horiz-adv-x="1077" d="M55 1014v57h197l305 -752h2l285 752h180v-57l-535 -1346h-180v60l148 333z"/>
<glyph unicode="z" horiz-adv-x="976" d="M76 0v154l598 764h-561v153h794v-153l-600 -762h586v-156h-817z"/>
<glyph unicode="{" horiz-adv-x="704" d="M55 647v148h51q57 0 87 32.5t30 83.5v357q0 250 262 250h152v-148h-125q-41 0 -65.5 -27.5t-24.5 -72.5v-350q0 -154 -154 -195v-4q154 -41 154 -197v-374q0 -45 24.5 -74t65.5 -29h125v-147h-152q-262 0 -262 252v380q0 51 -29.5 83t-87.5 32h-51z"/>
<glyph unicode="|" horiz-adv-x="399" d="M115 -100v1618h168v-1618h-168z"/>
<glyph unicode="}" horiz-adv-x="704" d="M68 47h122q43 0 69 29.5t26 73.5v374q0 156 153 197v4q-154 41 -153 195v350q0 43 -26 71.5t-69 28.5h-122v148h153q260 0 260 -250v-357q0 -53 29 -84.5t88 -31.5h49v-148h-49q-59 0 -88 -31.5t-29 -83.5v-380q0 -252 -260 -252h-153v147z"/>
<glyph unicode="~" horiz-adv-x="753" d="M55 530q18 82 68.5 134.5t126.5 52.5q55 0 138 -33t106 -33q55 0 73 74h129v-70q-18 -84 -68 -135t-126 -51q-51 0 -135 33t-107 33q-57 0 -76 -76h-129v71z"/>
<glyph unicode="¡" horiz-adv-x="542" d="M145 1167.5q0 53.5 37 90t90.5 36.5t89 -36.5t35.5 -90t-36.5 -91.5t-88.5 -38q-53 0 -90 38t-37 91.5zM160 -18l39 933h145l39 -933v-134h-223v134z"/>
<glyph unicode="¢" horiz-adv-x="1024" d="M70 535q0 231 128 377.5t334 170.5v119h138v-119q150 -12 262 -82v-163h-88q-68 68 -174 84v-772q123 20 194 100h78v-152q-111 -88 -272 -106v-203h-138v201q-217 18 -339.5 161.5t-122.5 383.5zM281 535q0 -342 251 -385v772q-119 -23 -185 -123t-66 -264z"/>
<glyph unicode="£" horiz-adv-x="1048" d="M59 158q164 78 164 274q0 86 -24 203h-131v153h98q-33 145 -33 246q0 193 130 302.5t339 109.5t356 -109v-168h-79q-121 102 -273 103q-117 0 -184.5 -59.5t-67.5 -172.5q0 -76 29 -252h365v-153h-338q16 -104 16 -201q0 -147 -104 -252h659v-182h-922v158z"/>
<glyph unicode="¥" horiz-adv-x="1124" d="M61 1362v72h199l322 -613h2l311 613h170v-72l-324 -610h277v-136h-334v-124h334v-136h-334v-356h-223v356h-336v136h336v124h-336v136h270z"/>
<glyph unicode="¦" horiz-adv-x="342" d="M86 -100v733h170l-2 -733h-168zM86 797v721h168l2 -721h-170z"/>
<glyph unicode="§" horiz-adv-x="1054" d="M63 582q0 211 218 278q-123 82 -123 262q0 145 104.5 234.5t284.5 89.5q209 0 330 -80v-158h-68q-98 78 -256 78q-100 0 -156.5 -41t-56.5 -112q0 -70 56.5 -114t193.5 -77q203 -51 299 -130t96 -226q0 -205 -209 -281q125 -84 125 -242q0 -154 -106.5 -243.5 t-313.5 -89.5q-211 0 -362 92v162h67q41 -39 121 -68t172 -29q219 0 219 156q0 74 -57 112t-223 85q-186 55 -270.5 132t-84.5 210zM250 616q0 -72 52 -116.5t179 -81.5q127 -39 133 -41q180 41 181 180q0 78 -60.5 124t-191.5 79q-20 4 -54 14t-43 12q-196 -27 -196 -170z "/>
<glyph unicode="¨" horiz-adv-x="833" d="M123 1304.5q0 47.5 35 81t82 33.5q49 0 82.5 -33.5t33.5 -81t-33.5 -81t-82.5 -33.5q-47 0 -82 33.5t-35 81zM477 1304.5q0 47.5 34 81t81 33.5t82 -33.5t35 -81t-35 -81t-82 -33.5t-81 33.5t-34 81z"/>
<glyph unicode="©" horiz-adv-x="1587" d="M84 717q0 340 206 535.5t503 195.5q301 0 505.5 -195.5t204.5 -535.5t-204.5 -535.5t-505.5 -195.5q-297 0 -503 195.5t-206 535.5zM190 717q0 -297 172.5 -468t430.5 -171q262 0 433 171t171 468q0 299 -172 470t-432 171q-258 0 -430.5 -172t-172.5 -469zM428 719 q0 184 109.5 293.5t283.5 109.5q137 0 242 -61v-135h-74q-57 66 -168 65q-100 0 -159.5 -71.5t-59.5 -202.5q0 -268 217 -268q119 0 182 71h68v-121q-100 -82 -256 -82q-180 0 -282.5 107t-102.5 295z"/>
<glyph unicode="ª" horiz-adv-x="892" d="M57 786q0 135 95.5 207t255.5 72q106 0 198 -25v105q0 82 -43 116.5t-139 34.5q-145 0 -242 -71h-61v143q152 78 336 78q170 0 256 -65.5t86 -219.5v-633h-90q-49 0 -70 21.5t-29 77.5q-102 -109 -268 -109q-127 0 -206 68.5t-79 199.5zM246 797q0 -147 160 -148 q115 0 200 96v185q-98 16 -157 16q-203 1 -203 -149z"/>
<glyph unicode="«" horiz-adv-x="976" d="M80 485v93l270 399h164v-55l-252 -385v-5l252 -391v-53h-164zM461 485v93l270 399h166v-55l-254 -385v-5l254 -391v-53h-166z"/>
<glyph unicode="­" horiz-adv-x="565" d="M76 520v178h413v-178h-413z"/>
<glyph unicode="®" horiz-adv-x="829" d="M45 1083q0 168 108.5 267.5t260.5 99.5q150 0 259 -99.5t109 -267.5q0 -166 -109.5 -266t-258.5 -100q-152 0 -260.5 100t-108.5 266zM125 1083.5q0 -141.5 81 -219.5t208 -78q125 0 205.5 78t80.5 219.5t-80.5 219t-205.5 77.5q-127 0 -208 -77.5t-81 -219zM272 899v385 h156q147 0 147 -123q0 -70 -65 -102l72 -125v-35h-90l-74 139h-45v-139h-101zM373 1106h47q57 0 57 57q0 53 -57 54h-47v-111z"/>
<glyph unicode="¯" horiz-adv-x="833" d="M176 1221v147h481v-147h-481z"/>
<glyph unicode="°" horiz-adv-x="692" d="M72 1169q0 123 79.5 200t194.5 77t195 -77t80 -200q0 -121 -80 -198.5t-195 -77.5t-194.5 77.5t-79.5 198.5zM197 1169.5q0 -73.5 42 -118.5t107 -45q68 0 111 45t43 118.5t-43 119.5t-111 46q-66 0 -107.5 -46t-41.5 -119.5z"/>
<glyph unicode="²" horiz-adv-x="653" d="M59 655v133l217 207q78 72 110 118t32 95q0 47 -31 76t-88 29q-90 0 -158 -64h-63v115q100 80 244 80q127 0 196.5 -57.5t69.5 -165.5q0 -78 -44 -141.5t-147 -157.5l-147 -134h336v-133h-527z"/>
<glyph unicode="³" horiz-adv-x="638" d="M47 715v110h64q57 -57 153 -57q150 0 150 117q0 111 -144 110h-71v113h65q66 0 104 28.5t38 80.5q0 98 -123 98q-90 0 -152 -49h-61v106q104 72 235 72q117 0 188.5 -53.5t71.5 -155.5q0 -129 -145 -174v-4q158 -33 158 -183q0 -109 -80 -169t-219.5 -60t-231.5 70z"/>
<glyph unicode="´" horiz-adv-x="833" d="M346 1161v49l103 224h210v-68l-192 -205h-121z"/>
<glyph unicode="¶" horiz-adv-x="1165" d="M70 1042q0 215 130 303.5t363 88.5h447v-1620h-158v1462h-154v-1462h-157v837h-19q-452 0 -452 391z"/>
<glyph unicode="·" horiz-adv-x="403" d="M76 618.5q0 53.5 37 91.5t88 38q53 0 90 -38t37 -91.5t-37 -90t-90.5 -36.5t-89 36.5t-35.5 90z"/>
<glyph unicode="¸" horiz-adv-x="833" d="M264 -223h51q27 -31 80 -31q70 0 70 49q0 51 -84 51h-47v154h110v-63q158 -6 158 -146q0 -70 -52 -109.5t-136 -39.5q-80 0 -150 36v99z"/>
<glyph unicode="¹" horiz-adv-x="509" d="M47 1190v125l215 119h125v-779h-174v605l-127 -70h-39z"/>
<glyph unicode="º" horiz-adv-x="1021" d="M70 979q0 213 124.5 340t315.5 127q193 0 317.5 -127t124.5 -340t-125 -337t-317 -124q-190 0 -315 124t-125 337zM268 979q0 -158 64.5 -237.5t177.5 -79.5q115 0 179.5 79.5t64.5 237.5q0 156 -65.5 238.5t-178.5 82.5t-177.5 -82.5t-64.5 -238.5z"/>
<glyph unicode="»" horiz-adv-x="976" d="M80 88v53l252 391v7l-252 383v55h166l268 -399v-91l-268 -399h-166zM461 88v53l252 391v7l-252 383v55h166l270 -399v-91l-270 -399h-166z"/>
<glyph unicode="¼" horiz-adv-x="1409" d="M57 1190v125l215 119h125v-779h-174v605l-127 -70h-39zM113 -70l979 1563h157l-979 -1563h-157zM756 174v131l362 473h156v-489h92v-115h-92v-174h-162v174h-356zM881 289h233v299h-6l-227 -295v-4z"/>
<glyph unicode="½" horiz-adv-x="1490" d="M57 1190v125l215 119h125v-779h-174v605l-127 -70h-39zM113 -70l979 1563h157l-979 -1563h-157zM907 0v131l215 207q78 74 110 120t32 93q0 49 -31 76.5t-88 27.5q-88 0 -158 -61h-63v115q100 80 245 79q125 0 196 -57t71 -166q0 -78 -45 -142.5t-148 -156.5l-145 -135 h336v-131h-527z"/>
<glyph unicode="¾" horiz-adv-x="1490" d="M63 715v110h64q61 -57 156 -57q150 0 149 117q0 111 -143 110h-72v113h66q66 0 103.5 28.5t37.5 80.5q0 98 -123 98q-90 0 -151 -49h-62v106q104 72 234 72q119 0 189.5 -53.5t70.5 -155.5q0 -129 -144 -174v-4q158 -33 158 -183q0 -109 -80 -169t-219 -60 q-142 0 -234 70zM215 -70l979 1563h160l-979 -1563h-160zM840 174v131l362 473h156v-489h90v-115h-90v-174h-162v174h-356zM965 289h233v299h-6l-227 -295v-4z"/>
<glyph unicode="¿" horiz-adv-x="903" d="M76 188q0 115 54 196t173 191q72 66 102.5 100t53.5 96q18 49 17 110q0 17 -1 34h154q7 -51 7 -94q0 -72 -20 -124q-31 -83 -135 -191q-63 -63 -93 -97t-60.5 -95.5t-30.5 -125.5q0 -86 51 -133t144 -47q174 0 260 107h86v-164q-147 -115 -359 -115q-190 0 -296.5 90 t-106.5 262zM418 1167.5q0 53.5 35.5 90t89 36.5t89.5 -36.5t36 -90t-36 -91.5t-89 -38q-51 0 -88 38t-37 91.5z"/>
<glyph unicode="À" horiz-adv-x="1308" d="M63 0v68l474 1366h237l471 -1366v-68h-211l-133 401h-526l-129 -401h-183zM428 565h418l-207 633h-4zM428 1659v65h211l86 -194v-51h-119z"/>
<glyph unicode="Á" horiz-adv-x="1308" d="M63 0v68l474 1366h237l471 -1366v-68h-211l-133 401h-526l-129 -401h-183zM428 565h418l-207 633h-4zM578 1479v51l88 194h211v-65l-177 -180h-122z"/>
<glyph unicode="Â" horiz-adv-x="1308" d="M78 0v68l473 1366h235l474 -1366v-68h-213l-134 401h-526l-129 -401h-180zM414 1479v59l178 193h149l172 -193v-59h-116l-135 110l-138 -110h-110zM442 565h418l-209 633h-4z"/>
<glyph unicode="Ã" horiz-adv-x="1308" d="M63 0v68l474 1366h237l471 -1366v-68h-211l-133 401h-526l-129 -401h-183zM356 1487v61q16 80 61.5 124t112.5 44q51 0 122 -32.5t91 -32.5q57 0 74 67h119v-59q-33 -168 -174 -168q-49 0 -120 34t-91 34q-61 0 -74 -72h-121zM428 565h418l-207 633h-4z"/>
<glyph unicode="Ä" horiz-adv-x="1308" d="M63 0v68l474 1366h237l471 -1366v-68h-211l-133 401h-526l-129 -401h-183zM367 1606q0 47 34.5 80.5t81.5 33.5t81 -33.5t34 -80.5q0 -49 -34 -83t-81 -34t-81.5 34t-34.5 83zM428 565h418l-207 633h-4zM707 1606q0 47 34.5 80.5t81.5 33.5t81 -33.5t34 -80.5 q0 -49 -34 -83t-81 -34t-81.5 34t-34.5 83z"/>
<glyph unicode="Å" horiz-adv-x="1308" d="M63 0v68l474 1366h237l471 -1366v-68h-211l-133 401h-526l-129 -401h-183zM428 565h418l-207 633h-4zM453 1677q0 84 57 138.5t137 54.5q82 0 139.5 -53.5t57.5 -139.5t-57.5 -139t-139.5 -53q-80 0 -137 53t-57 139zM565 1677q0 -41 22.5 -65.5t59.5 -24.5 q39 0 62.5 24.5t23.5 65.5t-23.5 66.5t-62.5 25.5q-35 0 -58.5 -25.5t-23.5 -66.5z"/>
<glyph unicode="Æ" horiz-adv-x="1890" d="M41 0v68l684 1366h1059v-172h-656v-447h482v-164h-482v-483h682v-168h-903v412h-485l-199 -412h-182zM502 575h405v687h-71z"/>
<glyph unicode="Ç" horiz-adv-x="1255" d="M88 717q0 338 184.5 533.5t470.5 195.5q143 0 233.5 -27.5t180.5 -87.5v-174h-86q-123 119 -321.5 119t-316.5 -143.5t-118 -407.5q0 -281 108.5 -425t309.5 -144q217 0 369 155h72v-170q-176 -154 -449 -153h-2v-51q160 -6 160 -146q0 -70 -52.5 -109.5t-136.5 -39.5 t-149 36v99h51q27 -31 80 -31q70 0 69 49q0 51 -83 51h-48v150q-244 37 -385 224.5t-141 496.5z"/>
<glyph unicode="È" horiz-adv-x="1138" d="M158 0v1434h878v-172h-657v-447h481v-164h-481v-483h680v-168h-901zM393 1659v65h211l88 -194v-51h-119z"/>
<glyph unicode="É" horiz-adv-x="1138" d="M158 0v1434h878v-172h-657v-447h481v-164h-481v-483h680v-168h-901zM549 1479v51l88 194h209v-65l-176 -180h-121z"/>
<glyph unicode="Ê" horiz-adv-x="1138" d="M158 0v1434h878v-172h-657v-447h481v-164h-481v-483h680v-168h-901zM367 1479v59l178 193h149l172 -193v-59h-116l-136 110l-137 -110h-110z"/>
<glyph unicode="Ë" horiz-adv-x="1138" d="M158 0v1434h878v-172h-657v-447h481v-164h-481v-483h680v-168h-901zM330 1606q0 47 34.5 80.5t82 33.5t82 -33.5t34.5 -80.5q0 -49 -34.5 -83t-82 -34t-82 34t-34.5 83zM672 1606q0 47 33.5 80.5t81 33.5t82 -33.5t34.5 -80.5q0 -49 -34.5 -83t-82 -34t-81 34t-33.5 83z "/>
<glyph unicode="Ì" horiz-adv-x="548" d="M49 1659v65h211l88 -194v-51h-119zM162 0v1434h225v-1434h-225z"/>
<glyph unicode="Í" horiz-adv-x="548" d="M162 0v1434h225v-1434h-225zM207 1479v51l88 194h211v-65l-178 -180h-121z"/>
<glyph unicode="Î" horiz-adv-x="548" d="M25 1479v59l178 193h149l172 -193v-59h-116l-136 110l-137 -110h-110zM162 0v1434h225v-1434h-225z"/>
<glyph unicode="Ï" horiz-adv-x="548" d="M-12 1606q0 45 35.5 79.5t83 34.5t81 -33.5t33.5 -80.5q0 -49 -33.5 -83t-81.5 -34q-49 0 -83.5 34t-34.5 83zM162 0v1434h225v-1434h-225zM330 1606q0 47 33.5 80.5t80.5 33.5q49 0 83 -33.5t34 -80.5q0 -49 -33.5 -83t-83.5 -34q-47 0 -80.5 34t-33.5 83z"/>
<glyph unicode="Ð" horiz-adv-x="1376" d="M35 633v166h131v635h409q356 0 536.5 -172t180.5 -541q0 -721 -723 -721h-403v633h-131zM387 168h182q256 0 375 128t119 423q0 291 -118 418t-376 127h-182v-465h350v-166h-350v-465z"/>
<glyph unicode="Ñ" horiz-adv-x="1390" d="M158 0v1434h256l624 -1055h4v1055h193v-1434h-205l-678 1149h-4v-1149h-190zM432 1548q14 80 59.5 124t114.5 44q51 0 122 -32.5t91 -32.5q57 0 74 67h119v-59q-33 -168 -174 -168q-49 0 -120 34t-91 34q-61 0 -74 -72h-121v61z"/>
<glyph unicode="Ò" horiz-adv-x="1462" d="M82 717q0 340 187.5 534.5t462 194.5t460.5 -194.5t186 -534.5t-186 -534.5t-461 -194.5q-276 0 -462.5 193.5t-186.5 535.5zM311 712.5q0 -276.5 115 -418.5t305 -142q188 0 304 143t116 418q0 276 -115.5 421.5t-304 145.5t-304.5 -145.5t-116 -422zM508 1659v65h209 l88 -194v-51h-119z"/>
<glyph unicode="Ó" horiz-adv-x="1462" d="M82 717q0 340 187.5 534.5t462 194.5t460.5 -194.5t186 -534.5t-186 -534.5t-461 -194.5q-276 0 -462.5 193.5t-186.5 535.5zM311 712.5q0 -276.5 115 -418.5t305 -142q188 0 304 143t116 418q0 276 -115.5 421.5t-304 145.5t-304.5 -145.5t-116 -422zM662 1479v51 l88 194h211v-65l-179 -180h-120z"/>
<glyph unicode="Ô" horiz-adv-x="1462" d="M82 717q0 340 187.5 534.5t462 194.5t460.5 -194.5t186 -534.5t-186 -534.5t-461 -194.5q-276 0 -462.5 193.5t-186.5 535.5zM311 712.5q0 -276.5 115 -418.5t305 -142q188 0 304 143t116 418q0 276 -115.5 421.5t-304 145.5t-304.5 -145.5t-116 -422zM479 1479v59 l178 193h150l172 -193v-59h-117l-135 110l-137 -110h-111z"/>
<glyph unicode="Õ" horiz-adv-x="1462" d="M82 717q0 340 187.5 534.5t462 194.5t460.5 -194.5t186 -534.5t-186 -534.5t-461 -194.5q-276 0 -462.5 193.5t-186.5 535.5zM311 712.5q0 -276.5 115 -418.5t305 -142q188 0 304 143t116 418q0 276 -115.5 421.5t-304 145.5t-304.5 -145.5t-116 -422zM440 1487v61 q14 80 59.5 124t114.5 44q51 0 122 -32.5t91 -32.5q57 0 74 67h119v-59q-33 -168 -176 -168q-49 0 -119 34t-90 34q-61 0 -74 -72h-121z"/>
<glyph unicode="Ö" horiz-adv-x="1462" d="M82 717q0 340 187.5 534.5t462 194.5t460.5 -194.5t186 -534.5t-186 -534.5t-461 -194.5q-276 0 -462.5 193.5t-186.5 535.5zM311 712.5q0 -276.5 115 -418.5t305 -142q188 0 304 143t116 418q0 276 -115.5 421.5t-304 145.5t-304.5 -145.5t-116 -422zM444 1606 q0 47 35 80.5t82 33.5t80 -33.5t33 -80.5q0 -49 -33 -83t-80 -34t-82 34t-35 83zM786 1606q0 47 34 80.5t81 33.5t80 -33.5t33 -80.5q0 -49 -33 -83t-80 -34t-81 34t-34 83z"/>
<glyph unicode="×" horiz-adv-x="1001" d="M92 387l293 307l-293 305l113 121l297 -305l295 305l112 -121l-295 -305l295 -307l-112 -121l-295 307l-297 -307z"/>
<glyph unicode="Ø" horiz-adv-x="1462" d="M82 717q0 340 187.5 534.5t461.5 194.5q219 0 381 -125l109 141h143v-45l-147 -192q162 -199 161 -508q0 -340 -186 -534.5t-461 -194.5q-209 0 -369 112l-112 -145h-141v45l147 195q-174 200 -174 522zM309 713q0 -219 70 -355l622 818q-109 104 -270 104 q-188 0 -305 -145.5t-117 -421.5zM469 244q104 -92 262 -92q188 0 305 143t117 418q0 201 -66 342z"/>
<glyph unicode="Ù" horiz-adv-x="1380" d="M150 528v906h223v-912q0 -201 88 -279.5t254 -78.5q156 0 236.5 80t80.5 278v912h199v-906q0 -541 -529 -540q-260 0 -406 137t-146 403zM477 1659v65h211l88 -194v-51h-121z"/>
<glyph unicode="Ú" horiz-adv-x="1380" d="M150 528v906h223v-912q0 -201 88 -279.5t254 -78.5q156 0 236.5 80t80.5 278v912h199v-906q0 -541 -529 -540q-260 0 -406 137t-146 403zM633 1479v51l86 194h211v-65l-176 -180h-121z"/>
<glyph unicode="Û" horiz-adv-x="1380" d="M150 528v906h223v-912q0 -201 88 -279.5t254 -78.5q156 0 236.5 80t80.5 278v912h199v-906q0 -541 -529 -540q-260 0 -406 137t-146 403zM451 1479v59l180 193h147l174 -193v-59h-116l-136 110l-137 -110h-112z"/>
<glyph unicode="Ü" horiz-adv-x="1380" d="M150 528v906h223v-912q0 -201 88 -279.5t254 -78.5q156 0 236.5 80t80.5 278v912h199v-906q0 -541 -529 -540q-260 0 -406 137t-146 403zM418 1606q0 47 33.5 80.5t81 33.5t80 -33.5t32.5 -80.5q0 -49 -32.5 -83t-80 -34t-81 34t-33.5 83zM760 1606q0 47 32.5 80.5 t80 33.5t80 -33.5t32.5 -80.5q0 -49 -32.5 -83t-80 -34t-80 34t-32.5 83z"/>
<glyph unicode="Ý" horiz-adv-x="1189" d="M55 1362v72h203l352 -650h2l344 650h179v-72l-420 -782v-580h-221v573zM539 1479v51l88 194h211v-65l-179 -180h-120z"/>
<glyph unicode="Þ" horiz-adv-x="1173" d="M158 0v1434h221v-277h196q528 0 529 -424q0 -430 -533 -430h-192v-303h-221zM379 987v-524h192q160 0 234 62.5t74 203.5q0 139 -73 198.5t-235 59.5h-192z"/>
<glyph unicode="ß" horiz-adv-x="1210" d="M137 1028q0 201 127 311.5t357 110.5q184 0 291.5 -70.5t107.5 -216.5q0 -129 -191 -278q-70 -55 -95 -84t-25 -60q0 -33 32.5 -58.5t126.5 -64.5q143 -57 209 -125.5t66 -195.5q0 -141 -99.5 -225t-277.5 -84q-170 0 -268 73v160h67q82 -74 201 -74q86 0 137 36t51 98 q0 59 -43 94t-157.5 80t-171 102t-56.5 148q0 80 34 131t114 125q6 6 22 20l23 19q6 5 19.5 17.5t18.5 18.5l15 19q10 12 14 19l11 18q6 10 9 19t5 20.5t2 23.5q0 68 -51 103.5t-144 35.5q-135 0 -203.5 -71.5t-68.5 -202.5v-1020h-209v1028z"/>
<glyph unicode="à" d="M68 307q0 160 113.5 243t301.5 83q119 0 234 -29v141q0 182 -215 183q-172 0 -293 -88h-66v155q184 92 385 92q197 0 298.5 -77.5t101.5 -249.5v-760h-82q-63 0 -89 23.5t-34 95.5q-121 -131 -320 -131q-152 0 -243.5 83.5t-91.5 235.5zM272 319q0 -96 54.5 -142 t144.5 -46q137 0 246 123v227q-98 20 -199 21q-246 -1 -246 -183zM276 1366v68h211l101 -224v-49h-119z"/>
<glyph unicode="á" d="M68 307q0 160 113.5 243t301.5 83q119 0 234 -29v141q0 182 -215 183q-172 0 -293 -88h-66v155q184 92 385 92q197 0 298.5 -77.5t101.5 -249.5v-760h-82q-63 0 -89 23.5t-34 95.5q-121 -131 -320 -131q-152 0 -243.5 83.5t-91.5 235.5zM272 319q0 -96 54.5 -142 t144.5 -46q137 0 246 123v227q-98 20 -199 21q-246 -1 -246 -183zM469 1161v49l104 224h209v-68l-192 -205h-121z"/>
<glyph unicode="â" d="M68 307q0 160 113.5 243t301.5 83q119 0 234 -29v141q0 182 -215 183q-172 0 -293 -88h-66v155q184 92 385 92q197 0 298.5 -77.5t101.5 -249.5v-760h-82q-63 0 -89 23.5t-34 95.5q-121 -131 -320 -131q-152 0 -243.5 83.5t-91.5 235.5zM272 319q0 -96 54.5 -142 t144.5 -46q137 0 246 123v227q-98 20 -199 21q-246 -1 -246 -183zM274 1161v60l181 213h149l174 -213v-60h-116l-138 131l-141 -131h-109z"/>
<glyph unicode="ã" d="M68 307q0 160 113.5 243t301.5 83q119 0 234 -29v141q0 182 -215 183q-172 0 -293 -88h-66v155q184 92 385 92q197 0 298.5 -77.5t101.5 -249.5v-760h-82q-63 0 -89 23.5t-34 95.5q-121 -131 -320 -131q-152 0 -243.5 83.5t-91.5 235.5zM238 1235q14 80 59 124t115 44 q51 0 121.5 -33t91.5 -33q57 0 73 70h119v-61q-33 -168 -174 -168q-49 0 -119.5 33.5t-91.5 33.5q-61 0 -74 -69h-120v59zM272 319q0 -96 54.5 -142t144.5 -46q137 0 246 123v227q-98 20 -199 21q-246 -1 -246 -183z"/>
<glyph unicode="ä" d="M68 307q0 160 113.5 243t301.5 83q119 0 234 -29v141q0 182 -215 183q-172 0 -293 -88h-66v155q184 92 385 92q197 0 298.5 -77.5t101.5 -249.5v-760h-82q-63 0 -89 23.5t-34 95.5q-121 -131 -320 -131q-152 0 -243.5 83.5t-91.5 235.5zM242 1304.5q0 47.5 34.5 81 t82 33.5t81 -33.5t33.5 -81t-33.5 -81t-81 -33.5t-82 33.5t-34.5 81zM272 319q0 -96 54.5 -142t144.5 -46q137 0 246 123v227q-98 20 -199 21q-246 -1 -246 -183zM582 1304.5q0 47.5 34.5 81t81.5 33.5t81 -33.5t34 -81t-34 -81t-81 -33.5t-81.5 33.5t-34.5 81z"/>
<glyph unicode="å" d="M68 307q0 160 113.5 243t301.5 83q119 0 234 -29v141q0 182 -215 183q-172 0 -293 -88h-66v155q184 92 385 92q197 0 298.5 -77.5t101.5 -249.5v-760h-82q-63 0 -89 23.5t-34 95.5q-121 -131 -320 -131q-152 0 -243.5 83.5t-91.5 235.5zM272 319q0 -96 54.5 -142 t144.5 -46q137 0 246 123v227q-98 20 -199 21q-246 -1 -246 -183zM332 1358q0 86 57 140t137 54q82 0 139.5 -54t57.5 -140t-57.5 -138.5t-139.5 -52.5q-80 0 -137 52.5t-57 138.5zM444 1358q0 -39 24 -64.5t58 -25.5q39 0 62.5 24.5t23.5 65.5t-23.5 66.5t-62.5 25.5 q-35 0 -58.5 -25.5t-23.5 -66.5z"/>
<glyph unicode="æ" horiz-adv-x="1720" d="M68 309.5q0 155.5 115.5 240.5t310.5 85h223v110q0 182 -215 183q-172 0 -293 -88h-66v155q184 92 385 92q258 0 332 -143q137 143 342 143q217 0 334 -129t117 -387q0 -18 -2 -44.5t-2 -28.5h-721q8 -186 88 -269.5t237 -83.5q184 0 297 99h70v-146q-166 -111 -395 -110 q-285 0 -416 194q-143 -195 -387 -194q-164 0 -259 83t-95 238.5zM272 319q0 -96 53.5 -142t141.5 -46q174 0 289 158q-39 94 -41 209h-199q-244 -1 -244 -179zM932 635h514q-4 166 -65.5 237.5t-178.5 71.5q-237 0 -270 -309z"/>
<glyph unicode="ç" horiz-adv-x="1001" d="M70 535q0 254 148.5 403t379.5 149q186 0 322 -86v-163h-86q-88 88 -238 88q-141 0 -227 -103.5t-86 -287.5q0 -190 81.5 -289t227.5 -99q166 0 260 103h78v-152q-139 -111 -342 -110h-21v-51q158 -6 158 -146q0 -70 -52 -109.5t-136 -39.5q-80 0 -150 36v99h53 q23 -31 78 -31q70 0 70 49q0 51 -82 51h-49v154q-184 37 -285.5 176.5t-101.5 358.5z"/>
<glyph unicode="è" horiz-adv-x="1077" d="M70 532q0 252 138 403.5t351 151.5q217 0 333 -129t116 -389q0 -16 -1 -43.5t-1 -29.5h-721q8 -184 89 -267.5t236 -83.5q176 0 297 99h68v-146q-162 -111 -395 -110q-244 0 -377 145t-133 399zM289 633h512q-2 166 -63.5 238.5t-178.5 72.5q-239 0 -270 -311zM305 1366 v68h209l102 -224v-49h-118z"/>
<glyph unicode="é" horiz-adv-x="1077" d="M70 532q0 252 138 403.5t351 151.5q217 0 333 -129t116 -389q0 -16 -1 -43.5t-1 -29.5h-721q8 -184 89 -267.5t236 -83.5q176 0 297 99h68v-146q-162 -111 -395 -110q-244 0 -377 145t-133 399zM289 633h512q-2 166 -63.5 238.5t-178.5 72.5q-239 0 -270 -311zM496 1161 v49l102 224h211v-68l-193 -205h-120z"/>
<glyph unicode="ê" horiz-adv-x="1077" d="M70 532q0 252 138 403.5t351 151.5q217 0 333 -129t116 -389q0 -16 -1 -43.5t-1 -29.5h-721q8 -184 89 -267.5t236 -83.5q176 0 297 99h68v-146q-162 -111 -395 -110q-244 0 -377 145t-133 399zM289 633h512q-2 166 -63.5 238.5t-178.5 72.5q-239 0 -270 -311zM303 1161 v60l180 213h150l174 -213v-60h-117l-137 131l-141 -131h-109z"/>
<glyph unicode="ë" horiz-adv-x="1077" d="M70 532q0 252 138 403.5t351 151.5q217 0 333 -129t116 -389q0 -16 -1 -43.5t-1 -29.5h-721q8 -184 89 -267.5t236 -83.5q176 0 297 99h68v-146q-162 -111 -395 -110q-244 0 -377 145t-133 399zM266 1304.5q0 47.5 35 81t82 33.5t82 -33.5t35 -81t-35 -81t-82 -33.5 t-82 33.5t-35 81zM289 633h512q-2 166 -63.5 238.5t-178.5 72.5q-239 0 -270 -311zM608 1304.5q0 47.5 34 81t81 33.5t82 -33.5t35 -81t-35 -81t-82 -33.5t-81 33.5t-34 81z"/>
<glyph unicode="ì" horiz-adv-x="491" d="M6 1366v68h211l100 -224v-49h-118zM139 0v1071h117q61 0 76.5 -28.5t15.5 -131.5v-911h-209z"/>
<glyph unicode="í" horiz-adv-x="491" d="M139 0v1071h117q61 0 76.5 -28.5t15.5 -131.5v-911h-209zM166 1161v49l102 224h211v-68l-192 -205h-121z"/>
<glyph unicode="î" horiz-adv-x="491" d="M-8 1161v60l182 213h148l176 -213v-60h-119l-135 131l-142 -131h-110zM139 0v1071h117q61 0 76.5 -28.5t15.5 -131.5v-911h-209z"/>
<glyph unicode="ï" horiz-adv-x="491" d="M-41 1304.5q0 47.5 35 81t82 33.5t80.5 -33.5t33.5 -81t-33.5 -81t-80.5 -33.5t-82 33.5t-35 81zM139 0v1071h117q61 0 76.5 -28.5t15.5 -131.5v-911h-209zM301 1304.5q0 47.5 34 81t81 33.5t80.5 -33.5t33.5 -81t-33.5 -81t-80.5 -33.5t-81 33.5t-34 81z"/>
<glyph unicode="ð" horiz-adv-x="1163" d="M70 522q0 242 133 382t338 140q190 0 299 -131q-82 178 -226 273l-100 -84h-143v41l123 102q-63 27 -156 47v142h74q125 -25 221 -70l80 68h143v-41l-104 -91q342 -229 342 -733q0 -285 -143.5 -432t-372.5 -147q-227 0 -367.5 145t-140.5 389zM283 520 q0 -178 81.5 -276.5t223.5 -98.5q139 0 216 97.5t77 277.5q0 182 -77 281.5t-216 99.5t-222 -100.5t-83 -280.5z"/>
<glyph unicode="ñ" horiz-adv-x="1159" d="M137 0v1071h131q41 0 58.5 -26.5t19.5 -108.5q193 152 410 151q274 0 274 -294v-793h-209v743q0 94 -40 132t-122 38q-131 0 -313 -106v-807h-209zM299 1235q14 80 59 124t115 44q51 0 122 -33t91 -33q57 0 74 70h119v-61q-33 -168 -174 -168q-49 0 -120 33.5t-91 33.5 q-61 0 -74 -69h-121v59z"/>
<glyph unicode="ò" horiz-adv-x="1163" d="M70 532q0 252 144 403.5t367.5 151.5t368 -151.5t144.5 -403.5q0 -250 -144.5 -397t-368 -147t-367.5 147t-144 397zM283 532q0 -188 79.5 -287.5t219 -99.5t219.5 98.5t80 289t-80 294t-219 103.5q-137 0 -218 -104t-81 -294zM330 1366v68h211l102 -224v-49h-121z"/>
<glyph unicode="ó" horiz-adv-x="1163" d="M70 532q0 252 144 403.5t367.5 151.5t368 -151.5t144.5 -403.5q0 -250 -144.5 -397t-368 -147t-367.5 147t-144 397zM283 532q0 -188 79.5 -287.5t219 -99.5t219.5 98.5t80 289t-80 294t-219 103.5q-137 0 -218 -104t-81 -294zM520 1161v49l105 224h211v-68l-193 -205 h-123z"/>
<glyph unicode="ô" horiz-adv-x="1163" d="M70 532q0 252 144 403.5t367.5 151.5t368 -151.5t144.5 -403.5q0 -250 -144.5 -397t-368 -147t-367.5 147t-144 397zM283 532q0 -188 79.5 -287.5t219 -99.5t219.5 98.5t80 289t-80 294t-219 103.5q-137 0 -218 -104t-81 -294zM328 1161v60l182 213h147l177 -213v-60 h-119l-137 131l-140 -131h-110z"/>
<glyph unicode="õ" horiz-adv-x="1163" d="M70 532q0 252 144 403.5t367.5 151.5t368 -151.5t144.5 -403.5q0 -250 -144.5 -397t-368 -147t-367.5 147t-144 397zM283 532q0 -188 79.5 -287.5t219 -99.5t219.5 98.5t80 289t-80 294t-219 103.5q-137 0 -218 -104t-81 -294zM291 1176v59q16 80 61 124t113 44 q51 0 121.5 -33t91.5 -33q57 0 74 70h118v-61q-33 -168 -174 -168q-49 0 -119.5 33.5t-91.5 33.5q-61 0 -73 -69h-121z"/>
<glyph unicode="ö" horiz-adv-x="1163" d="M70 532q0 252 144 403.5t367.5 151.5t368 -151.5t144.5 -403.5q0 -250 -144.5 -397t-368 -147t-367.5 147t-144 397zM283 532q0 -188 79.5 -287.5t219 -99.5t219.5 98.5t80 289t-80 294t-219 103.5q-137 0 -218 -104t-81 -294zM295 1304.5q0 47.5 35 81t82 33.5 t80.5 -33.5t33.5 -81t-33.5 -81t-80.5 -33.5t-82 33.5t-35 81zM637 1304.5q0 47.5 34 81t81 33.5t80.5 -33.5t33.5 -81t-33.5 -81t-80.5 -33.5t-81 33.5t-34 81z"/>
<glyph unicode="÷" horiz-adv-x="1024" d="M70 621v174h884v-174h-884zM387 366.5q0 53.5 37 91.5t88 38q53 0 91 -38t38 -91.5t-38 -90t-91 -36.5t-89 36.5t-36 90zM387 1046.5q0 53.5 37 91.5t88 38q53 0 91 -38t38 -91.5t-38 -90t-91 -36.5t-89 36.5t-36 90z"/>
<glyph unicode="ø" horiz-adv-x="1163" d="M70 532q0 252 144 403.5t368 151.5q156 0 280 -79l80 102h127v-45l-108 -143q133 -154 133 -390q0 -250 -144.5 -397t-367.5 -147q-158 0 -279 75l-88 -114h-125v47l115 149q-135 145 -135 387zM279 532q0 -143 40 -235l443 577q-72 57 -180 58q-137 0 -220 -105 t-83 -295zM401 193q72 -53 181 -54q139 0 221 101.5t82 291.5q0 139 -43 236z"/>
<glyph unicode="ù" horiz-adv-x="1171" d="M137 272v799h209v-752q0 -96 42 -132.5t124 -36.5q131 0 303 102v819h209v-1071h-131q-39 0 -55.5 22.5t-20.5 98.5q-190 -135 -387 -135q-293 -1 -293 286zM332 1366v68h211l100 -224v-49h-119z"/>
<glyph unicode="ú" horiz-adv-x="1171" d="M137 272v799h209v-752q0 -96 42 -132.5t124 -36.5q131 0 303 102v819h209v-1071h-131q-39 0 -55.5 22.5t-20.5 98.5q-190 -135 -387 -135q-293 -1 -293 286zM522 1161v49l105 224h211v-68l-195 -205h-121z"/>
<glyph unicode="û" horiz-adv-x="1171" d="M137 272v799h209v-752q0 -96 42 -132.5t124 -36.5q131 0 303 102v819h209v-1071h-131q-39 0 -55.5 22.5t-20.5 98.5q-190 -135 -387 -135q-293 -1 -293 286zM330 1161v60l180 213h149l177 -213v-60h-119l-137 131l-140 -131h-110z"/>
<glyph unicode="ü" horiz-adv-x="1171" d="M137 272v799h209v-752q0 -96 42 -132.5t124 -36.5q131 0 303 102v819h209v-1071h-131q-39 0 -55.5 22.5t-20.5 98.5q-190 -135 -387 -135q-293 -1 -293 286zM295 1304.5q0 47.5 35 81t82 33.5t80.5 -33.5t33.5 -81t-33.5 -81t-80.5 -33.5t-82 33.5t-35 81zM637 1304.5 q0 47.5 34 81t81 33.5t80.5 -33.5t33.5 -81t-33.5 -81t-80.5 -33.5t-81 33.5t-34 81z"/>
<glyph unicode="ý" horiz-adv-x="1077" d="M55 1014v57h197l305 -752h2l285 752h180v-57l-535 -1346h-180v60l148 333zM498 1161v49l102 224h211v-68l-193 -205h-120z"/>
<glyph unicode="þ" horiz-adv-x="1165" d="M137 -332v1766h119q57 0 73.5 -26t16.5 -116v-358q154 154 348 153q170 0 286 -128t116 -400q0 -285 -131 -419t-322 -134q-180 0 -297 96v-434h-209zM346 254q94 -94 246 -94q291 0 291 379q0 381 -262 381q-131 0 -275 -123v-543z"/>
<glyph unicode="ÿ" horiz-adv-x="1077" d="M55 1014v57h197l305 -752h2l285 752h180v-57l-535 -1346h-180v60l148 333zM268 1304.5q0 47.5 35 81t82 33.5t82 -33.5t35 -81t-35 -81t-82 -33.5t-82 33.5t-35 81zM610 1304.5q0 47.5 34 81t81 33.5t82 -33.5t35 -81t-35 -81t-82 -33.5t-81 33.5t-34 81z"/>
<glyph unicode="Œ" horiz-adv-x="1923" d="M82 713q0 721 723 721h1016v-172h-641v-447h462v-164h-462v-483h663v-168h-1044q-354 0 -535.5 173t-181.5 540zM311 715q0 -291 119 -419t375 -128h151v1094h-151q-256 0 -375 -127t-119 -420z"/>
<glyph unicode="œ" horiz-adv-x="1886" d="M70 532q0 252 144 403.5t368 151.5q270 0 401 -215q125 215 387 215q215 0 332 -129t117 -389q0 -16 -2 -43.5t-2 -29.5h-721q8 -184 90 -267.5t237 -83.5q180 0 293 99h72v-146q-166 -111 -395 -110q-289 0 -410 205q-129 -205 -399 -205q-223 0 -367.5 147t-144.5 397z M283 532.5q0 -190.5 79.5 -291t219 -100.5t219.5 100.5t80 291t-80 293t-219 102.5q-137 0 -218 -102.5t-81 -293zM1098 633h514q-8 311 -242 311q-241 0 -272 -311z"/>
<glyph unicode="Ÿ" horiz-adv-x="1189" d="M55 1362v72h203l352 -650h2l344 650h179v-72l-420 -782v-580h-221v573zM326 1606q0 47 34.5 80.5t83.5 33.5q47 0 81 -33.5t34 -80.5q0 -49 -33.5 -83t-81.5 -34q-49 0 -83.5 34t-34.5 83zM668 1606q0 47 33.5 80.5t80.5 33.5t82 -33.5t35 -80.5q0 -49 -35 -83t-82 -34 t-80.5 34t-33.5 83z"/>
<glyph unicode="ˆ" horiz-adv-x="833" d="M164 1161v60l180 213h150l174 -213v-60h-117l-137 131l-142 -131h-108z"/>
<glyph unicode="˜" horiz-adv-x="833" d="M115 1176v59q33 168 176 168q49 0 119.5 -33t93.5 -33q57 0 74 70h118v-61q-33 -168 -176 -168q-49 0 -118.5 33.5t-90.5 33.5q-61 0 -73 -69h-123z"/>
<glyph unicode="–" horiz-adv-x="882" d="M92 498v172h699v-172h-699z"/>
<glyph unicode="—" horiz-adv-x="1460" d="M92 498v172h1276v-172h-1276z"/>
<glyph unicode="‘" horiz-adv-x="397" d="M74 1161q0 250 250 279v-103q-98 -16 -99 -75q0 -10 2 -16.5t7.5 -12.5t9.5 -8t14 -8.5t14 -8.5q45 -31 45 -94q0 -47 -32.5 -76.5t-83.5 -29.5q-55 0 -91 38.5t-36 114.5z"/>
<glyph unicode="’" horiz-adv-x="397" d="M74 1014v102q102 16 102 76q0 12 -5 20.5t-10 12.5t-17.5 11t-18.5 11q-45 33 -45 92q0 47 32.5 77t84.5 30q55 0 91 -39t36 -115q0 -251 -250 -278z"/>
<glyph unicode="‚" horiz-adv-x="397" d="M74 -80q47 6 74.5 26.5t27.5 47.5q0 12 -5 20.5t-10 12.5t-17.5 11t-18.5 11q-45 33 -45 92q0 47 32.5 77t84.5 30q55 0 91 -39t36 -115q0 -250 -250 -276v102z"/>
<glyph unicode="“" horiz-adv-x="749" d="M74 1161q0 250 250 279v-103q-98 -16 -99 -75q0 -10 2 -16.5t7.5 -12.5t9.5 -8t14 -8.5t14 -8.5q45 -31 45 -94q0 -47 -32.5 -76.5t-83.5 -29.5q-55 0 -91 38.5t-36 114.5zM426 1161q0 250 250 279v-103q-100 -16 -101 -75q0 -12 5.5 -20.5t10.5 -12.5t16.5 -10.5 t17.5 -10.5q47 -31 47 -94q0 -45 -34 -75.5t-85 -30.5q-55 0 -91 38.5t-36 114.5z"/>
<glyph unicode="”" horiz-adv-x="749" d="M74 1014v102q102 16 102 76q0 12 -5 20.5t-10 12.5t-17.5 11t-18.5 11q-45 33 -45 92q0 47 32.5 77t84.5 30q55 0 91 -39t36 -115q0 -251 -250 -278zM426 1116q100 16 100 76q0 12 -5 20.5t-9 12.5t-16.5 11t-18.5 11q-45 33 -45 92q0 47 33 77t84 30q55 0 91 -39 t36 -115q0 -252 -250 -278v102z"/>
<glyph unicode="„" horiz-adv-x="749" d="M74 -80q47 6 74.5 26.5t27.5 47.5q0 12 -5 20.5t-10 12.5t-17.5 11t-18.5 11q-45 33 -45 92q0 47 32.5 77t84.5 30q55 0 91 -39t36 -115q0 -250 -250 -276v102zM426 -80q47 6 73.5 26.5t26.5 47.5q0 12 -5 20.5t-9 12.5t-16.5 11t-18.5 11q-45 33 -45 92q0 47 33 77 t84 30q55 0 91 -39t36 -115q0 -250 -250 -276v102z"/>
<glyph unicode="•" horiz-adv-x="657" d="M72 590q0 119 73.5 190.5t182.5 71.5q111 0 183.5 -71.5t72.5 -190.5t-73 -188.5t-183 -69.5q-109 0 -182.5 69.5t-73.5 188.5z"/>
<glyph unicode="…" horiz-adv-x="1277" d="M74 116.5q0 53.5 36.5 91.5t90 38t91.5 -38t38 -91.5t-38 -90t-91.5 -36.5t-90 36.5t-36.5 90zM512 116.5q0 53.5 37 91.5t90 38t91 -38t38 -91.5t-38 -90t-91 -36.5t-90 36.5t-37 90zM948 116.5q0 53.5 38 91.5t91 38t90 -38t37 -91.5t-37 -90t-90 -36.5t-91 36.5 t-38 90z"/>
<glyph unicode="‹" horiz-adv-x="593" d="M80 485v93l270 399h164v-55l-252 -385v-5l252 -391v-53h-164z"/>
<glyph unicode="›" horiz-adv-x="593" d="M80 88v53l252 391v7l-252 383v55h166l268 -399v-91l-268 -399h-166z"/>
<glyph unicode="€" horiz-adv-x="1210" d="M53 520v137h113v60q0 43 2 65h-115v138h129q47 250 203 388t383 138q121 0 201 -23.5t157 -72.5v-164h-86q-113 90 -266 90q-301 0 -364 -356h440l-25 -138h-432v-125h408l-27 -137h-366q55 -365 350 -364q186 0 311 120h78v-155q-156 -133 -399 -133q-229 0 -378 138 t-190 394h-127z"/>
<glyph unicode="™" horiz-adv-x="1329" d="M59 1331v103h461v-103h-164v-467h-133v467h-164zM608 864v570h201l111 -359h2l114 359h201v-570h-131v455h-2l-143 -455h-97l-143 455h-2v-455h-111z"/>
<glyph unicode="" horiz-adv-x="1070" d="M0 1070h1070v-1070h-1070v1070z"/>
<glyph unicode="ﬁ" horiz-adv-x="1114" d="M41 924v147h129v92q0 143 77 214t214 71q80 0 137 -21v-133h-72q-74 0 -110.5 -30.5t-36.5 -108.5v-84h219v-147h-219v-924h-209v924h-129zM745 1309q0 51 37 87t86.5 36t86 -36t36.5 -87q0 -49 -36.5 -84t-86 -35t-86.5 35t-37 84zM762 0v1071h117q61 0 76.5 -28.5 t15.5 -131.5v-911h-209z"/>
<glyph unicode="ﬂ" horiz-adv-x="1112" d="M41 924v147h129v92q0 143 77 214t214 71q80 0 137 -21v-133h-72q-74 0 -110.5 -30.5t-36.5 -108.5v-84h219v-147h-219v-924h-209v924h-129zM762 0v1434h117q61 0 77.5 -25t16.5 -115v-1294h-211z"/>
<glyph unicode="ﬃ" horiz-adv-x="1789" d="M41 924v147h129v92q0 143 77 214t214 71q92 0 155 -23v-131h-90q-74 0 -110.5 -30.5t-36.5 -108.5v-84h219v-147h-219v-924h-209v924h-129zM690 924v147h129v92q0 143 77 214t214 71q92 0 156 -23v-131h-90q-74 0 -111 -30.5t-37 -108.5v-84h219v-147h-219v-924h-209v924 h-129zM1421 1309q0 51 37 87t86 36t86 -36t37 -87q0 -49 -37 -84t-86 -35t-86 35t-37 84zM1438 0v1071h116q61 0 77 -28.5t16 -131.5v-911h-209z"/>
<glyph unicode="ﬄ" horiz-adv-x="1787" d="M41 924v147h129v92q0 143 77 214t214 71q92 0 155 -23v-131h-90q-74 0 -110.5 -30.5t-36.5 -108.5v-84h219v-147h-219v-924h-209v924h-129zM690 924v147h129v92q0 143 77 214t214 71q92 0 156 -23v-131h-90q-74 0 -111 -30.5t-37 -108.5v-84h219v-147h-219v-924h-209v924 h-129zM1438 0v1434h116q61 0 78 -25t17 -115v-1294h-211z"/>
</font>
</defs>
</svg>
